/* XPM */
static const char *advertencia[] = {
/* columns rows colors chars-per-pixel */
"20 20 33 1 ",
"  c black",
". c #3E3B2E",
"X c #7D703D",
"o c #BEA12E",
"O c #DEB81B",
"+ c #CDAC25",
"@ c #EEC10E",
"# c #FFCC00",
"$ c #FFCD04",
"% c #FFCE08",
"& c #FFCE0C",
"* c #FDD73E",
"= c #FCDD5D",
"- c #FBDF6C",
"; c #FBE178",
": c gray",
"> c #FAE282",
", c #F9E8A5",
"< c #F8EAB4",
"1 c #F8ECBC",
"2 c #D0D0D1",
"3 c #F8EDC4",
"4 c #E2E2E2",
"5 c #E3E3E4",
"6 c #EEEEEF",
"7 c #EFEFEF",
"8 c #FAF5E1",
"9 c #F9F6E9",
"0 c gray94",
"q c gray95",
"w c #F6F6F6",
"e c #F9F9F9",
"r c #FBFBFC",
/* pixels */
"000000005ww500000000",
"000000006>;000000000",
"000000059%$850000000",
"00000006-##=00000000",
"00000059%##$85000000",
"0000006-####=0000000",
"0000059%+..+$8500000",
"000006-#o  o#=000000",
"000059%#o  o#$840000",
"00007-##o  o##=q0000",
"00059%##o  o##$84000",
"0007-###o  o###=q000",
"0059%###OXXO###$8400",
"006-####@oo@####=q00",
"059%####o  o####$847",
"06-#####o  o#####=q7",
"59%#####@oo@#####$85",
"23&##############$<0",
":51**************,5r",
"0e500000000000000570"
};
