/* XPM */
static const char *MatrixEncoderIcon_2[] = {
/* columns rows colors chars-per-pixel */
"64 64 128 2 ",
"   c #050506060707",
".  c #14D915CA16CB",
"X  c #247A257B267C",
"o  c #341A351B3603",
"O  c #367637373838",
"+  c #43DF44E045ED",
"@  c #53D454D555D6",
"#  c #565657575858",
"$  c #585858585959",
"%  c #5F5F60606161",
"&  c #646465406641",
"*  c #676767676868",
"=  c #6F6F70707272",
"-  c #737374747575",
";  c #7C7C7C7C7CFD",
":  c #D1D11F1F3030",
">  c #D1D121213232",
",  c #D3B32BAC3B9B",
"<  c #D5D537374747",
"1  c #D7D73E3E4C4C",
"2  c #D757424250D1",
"3  c #D8D848485555",
"4  c #DCDC5E5E6A6A",
"5  c #DEDE67677373",
"6  c #DE446EA17993",
"7  c #DEDE71F27C7C",
"8  c #3B484A579F9F",
"9  c #3E3E4D4DA0A0",
"0  c #7E7E7F7F8181",
"q  c #40404ECFA1A1",
"w  c #49495757A5A5",
"e  c #4D4D5B05A7A7",
"r  c #4F4F5D5DA8A8",
"t  c #51845EC5A9DC",
"y  c #55556262ABAB",
"u  c #5A5A6666ADAD",
"i  c #5CB2693EAED9",
"p  c #5F5F6B6BB0B0",
"a  c #60606C6CAFAF",
"s  c #63636F6FB2B2",
"d  c #6666723FB2B2",
"f  c #75757F7FBABA",
"g  c #E1E17A7A8484",
"h  c #7F7F80808202",
"j  c #7B7B8585BD3D",
"k  c #7F7F8989BFBF",
"l  c #828283488421",
"z  c #868687878888",
"x  c #878788888888",
"c  c #88DE893389DF",
"v  c #9B9B8B8B8E8E",
"b  c #8F8F91919292",
"n  c #93E3944494E4",
"m  c #969697979898",
"M  c #9D9D9DF39E9E",
"N  c #9E9E9F9FA1A1",
"B  c #A60CA5D8A5D8",
"V  c #AAAAABABAC2C",
"C  c #B6B6A0A0A3A3",
"Z  c #B4E7B57AB5FE",
"A  c #BB6ABB39BB07",
"S  c #E248831C8C59",
"D  c #E53A9DF3A54F",
"F  c #E6E6A0A0A7A7",
"G  c #E7E7A1A1A8A8",
"H  c #EA3FA751AE03",
"J  c #EAEAABABB1B1",
"K  c #84DA8E38C16B",
"L  c #878790D0C1C1",
"P  c #8C8C952EC5C5",
"I  c #96169E1ECACA",
"U  c #9DC5A542CC1A",
"Y  c #A0A0A7A7CFCF",
"T  c #BDBDBEBEC0C0",
"R  c #A5A5ABABD0D0",
"E  c #AFAFB5B5D6D6",
"W  c #B0B0B5B5D6D6",
"Q  c #B45EBA64D4D4",
"!  c #B90EBE68D72C",
"~  c #B7B7BDBDD9D9",
"^  c #BB10BFBFDB85",
"/  c #EEEEBEBEC3C3",
"(  c #BFBFC0C0C1C1",
")  c #BBBBC0C0D7D7",
"_  c #BDBDC2C2DC5C",
"`  c #C560C560C563",
"'  c #C8C8C7C7C7C7",
"]  c #C8C8C8C8C7C7",
"[  c #C7C7C8C8C9C9",
"{  c #CA7DCA7DCAA3",
"}  c #CDCDCFCFD0D0",
"|  c #C2C2C7C7DBDB",
" . c #C5C5C9C9DEDE",
".. c #C973CD77DF89",
"X. c #D5D5D696D797",
"o. c #D7D7D7D7D8D8",
"O. c #D72CD8D8DA84",
"+. c #DBB2DCCBDD9B",
"@. c #EE6EC242C747",
"#. c #EC6CCACACF4F",
"$. c #E5E5D5D5D8D8",
"%. c #EDEDD5D5D8D8",
"&. c #F2F2D1D1D5D5",
"*. c #F2F2D5D5D8D8",
"=. c #C9C9CDCDE0E0",
"-. c #CF0ED2F2E2A2",
";. c #D2D2D615E464",
":. c #D6D6D8D8E4E4",
">. c #DE2DDFBFE171",
",. c #D757D9D9E8E8",
"<. c #DB1ADE1DE928",
"1. c #DF5AE183E378",
"2. c #DF27E1BCEA32",
"3. c #E2E4E498E65B",
"4. c #E59DE75EE97E",
"5. c #E777E94BEAD7",
"6. c #EB3EEC69EDA4",
"7. c #F4F4E2E2E4E4",
"8. c #F2F2E6E6E8E8",
"9. c #F373EB6BED6D",
"0. c #F0F0F0F0EFEF",
"q. c #EE6CEF99F110",
"w. c #EFC2F105F210",
"e. c #F3D9F49DF55A",
"r. c #F7B7F7F7F906",
"t. c #F7F7F906F923",
"y. c #FE09FE2AFE4E",
"u. c None",
/* pixels */
"u.u.u.u.u.u.M ] ' ` ' ` ` ` ` ` ' ` ` ` ` ` ' ` ` ` ` ` ' ` ` ` ` ` ' ` ` ` ` ` ' ` ` ` ` ` ' ` ` ` ` ` ' ` ` ' ` n u.u.u.u.u.u.",
"u.u.u.u.Z 6.0.+.4.5.5.0.5.6.5.6.5.0.5.6.5.6.5.0.5.6.5.6.5.0.5.6.5.6.5.0.5.6.5.6.5.0.5.6.5.6.5.0.5.6.5.6.5.0.5.4.>.e.5.N u.u.u.u.",
"u.u.u.+.0.4.t.y.y.y.y.y.y.y.y.y.y.y.y.y.y.y.y.y.y.y.y.y.y.y.y.y.y.y.y.y.y.y.y.y.y.y.y.y.y.y.y.y.y.y.y.y.y.y.y.y.y.t.4.r.} u.u.u.",
"u.u.+.5.0.y.y.y.y.y.y.y.y.y.y.y.y.y.y.y.y.y.y.y.y.y.y.y.y.y.y.y.y.y.y.y.y.y.y.y.y.y.y.y.y.y.y.y.y.y.y.y.y.y.y.y.y.y.y.0.0.{ u.u.",
"u.B 0.0.y.y.y.y.y.y.y.y.y.y.y.y.y.y.y.y.y.y.y.y.y.y.y.y.y.y.y.y.y.y.y.y.y.y.y.y.y.y.y.y.y.y.y.y.y.y.y.y.y.y.y.y.y.y.y.y.e.t.b u.",
"u.0.4.y.y.y.y.y.y.y.y.y.y.y.y.y.y.y.y.y.y.y.y.y.y.y.y.y.y.y.y.y.y.y.y.y.y.y.y.y.y.y.y.y.y.y.y.y.y.y.y.y.y.y.y.y.y.y.y.y.y.6.4.u.",
"M 0.y.y.y.y.y.y.y.y.y.y.y.y.y.y.y.y.y.y.y.y.y.y.y.y.y.y.y.y.y.y.y.y.y.y.y.y.y.y.y.y.y.y.y.y.y.y.y.y.y.y.y.y.y.y.y.y.y.y.y.y.t.l ",
"' +.y.y.y.y.y.y.y.y.y.y.y.y.y.y.y.y.y.y.y.y.y.y.y.y.y.y.y.y.y.y.y.y.y.y.y.y.y.y.y.y.y.y.y.y.y.y.y.y.y.y.y.y.y.y.y.y.y.y.y.y.e.B ",
"' 4.y.y.y.y.t.y.y.y.y.y.y.y.y.y.y.y.y.y.y.y.y.y.y.y.y.y.y.y.y.y.y.y.y.y.y.y.y.y.y.y.y.y.y.y.y.y.y.y.y.y.y.y.y.y.y.y.y.y.y.y.r.Z ",
"` 5.y.t.t.t.y.y.y.y.y.y.y.t.y.y.y.y.y.y.y.y.y.y.y.y.y.y.y.y.y.y.y.y.y.y.y.y.y.y.y.y.y.y.y.y.y.y.y.y.y.y.y.y.y.y.y.y.y.y.y.y.0.A ",
"` 4.y.y.y.t.y.t.t.y.y.t.t.y.y.y.y.y.y.y.y.y.y.y.y.y.y.y.y.y.y.y.y.y.y.y.y.y.y.y.y.y.y.y.y.y.y.y.y.y.y.y.y.y.y.y.y.y.y.y.y.y.e.A ",
"' 4.y.t.t.y.t.y.y.t.t.y.y.y.y.t.y.y.t.y.y.y.y.y.y.y.y.y.y.y.y.y.y.y.y.y.y.y.y.y.y.y.y.y.y.y.y.y.y.y.y.y.y.y.y.y.y.y.y.y.y.y.e.Z ",
"' 4.y.t.y.t.t.y.t.t.y.t.t.y.y.t.y.y.y.y.y.y.y.y.y.y.y.y.y.y.y.y.y.y.y.y.y.y.y.y.y.y.y.y.y.y.y.y.y.y.y.y.y.y.y.y.y.y.y.y.y.y.r.Z ",
"` 4.y.t.t.t.t.t.y.y.t.y.y.t.t.y.t.y.t.y.y.t.y.y.y.y.y.y.y.y.y.y.y.y.y.y.y.y.y.y.y.y.y.y.y.y.y.y.y.y.y.y.y.y.y.y.y.y.y.y.y.y.0.A ",
"` 4.y.t.r.t.y.t.t.t.t.t.y.t.y.t.y.t.t.y.t.y.t.y.y.t.y.y.y.y.y.y.y.y.y.y.y.y.y.y.y.y.y.y.y.y.y.y.y.y.y.y.y.y.y.y.y.y.y.y.y.y.e.Z ",
"` 4.y.t.r.r.r.t.t.t.t.t.t.y.t.t.t.y.t.t.y.t.y.t.y.y.y.t.y.t.y.y.y.y.y.y.y.y.y.y.y.y.y.y.y.y.y.y.y.y.y.y.y.y.y.y.y.y.y.y.y.y.e.A ",
"` 4.y.t.t.t.t.t.r.r.r.r.r.r.t.r.y.t.t.t.y.y.y.t.y.y.t.y.y.t.y.y.y.t.y.y.y.y.y.y.y.y.y.y.y.y.y.y.y.y.y.y.y.y.y.y.y.y.y.y.y.y.r.Z ",
"` 4.y.t.e.t.t.e.r.r.r.r.r.r.y.t.r.t.y.r.t.r.y.t.t.y.y.t.t.y.t.y.y.y.y.y.y.y.y.y.y.y.y.y.y.y.y.y.y.y.y.y.y.y.y.y.y.y.y.y.y.y.0.A ",
"` 3.y.e.e.t.t.e.r.r.r.e.r.r.r.t.r.r.y.t.r.y.t.t.y.t.t.t.y.t.y.t.t.y.y.t.t.y.y.t.y.t.y.y.y.y.y.y.y.y.y.y.y.y.y.y.y.y.y.y.y.y.e.Z ",
"` 4.y.e.t.e.e.t.e.r.r.r.r.r.r.r.r.r.t.t.r.r.t.t.t.t.5.*   # t.y.y.r.t.y.t.y.y.y.y.y.y.y.y.y.y.y.y.; . $ y.y.y.y.y.y.y.y.y.y.e.A ",
"` 3.y.e.e.t.e.e.e.r.e.r.r.r.r.r.r.r.r.r.t.t.t.r.r.5.O       y.r.r.r.t.y.y.t.y.t.t.y.y.y.y.y.y.0.O     O y.y.y.y.y.y.y.y.y.y.r.Z ",
"' 3.t.e.e.e.e.e.r.e.e.r.e.e.r.e.e.Y P I e.U P I r.z         r.y.t.y.y.r.t.y.t.y.y.t.y.t.t.y.5.O       z y.y.y.y.y.y.y.y.y.y.0.A ",
"` 4.y.e.e.e.t.e.e.r.e.r.e.r.r.r.~ 9 9 Y E 9 9 E O.          r.r.r.r.r.r.y.t.t.y.y.t.t.y.y.O.O       . 0.t.y.t.y.y.y.y.y.y.y.e.Z ",
"` 3.t.e.e.e.e.e.e.e.e.e.e.e.r.e.K f K e.k f P r.&           r.r.r.y.r.t.t.t.t.t.t.y.t.t.[ .         c y.y.y.y.y.y.y.y.y.y.y.0.A ",
"' 3.t.0.e.e.e.e.e.e.e.e.e.e.e.,.~ ^ 2.,.~ ^ 6.-.            4.y.r.t.r.r.t.t.t.t.t.t.y.[ .         . 6.t.t.y.y.t.y.y.y.y.y.y.0.A ",
"` 3.t.0.w.e.w.e.e.w.e.e.e.e.6.t 9 u 2.r 9 s e.*             Z r.r.r.r.r.t.t.t.t.t.t.[ .           c t.y.y.t.y.y.y.t.t.y.y.y.0.A ",
"' 3.t.e.w.e.w.e.w.e.e.e.e.e.K 8 9 -.k 8 9 ,.Z               Z r.r.r.e.r.r.r.t.t.r.m             . 8.y.t.t.t.t.y.t.y.t.y.y.y.0.A ",
"' 3.t.0.w.e.w.w.e.e.w.w.e.e.e.e.r.e.e.r.e.e.+     X         Z e.r.r.r.r.r.r.r.r.m       X       z y.t.t.t.y.y.t.t.y.y.t.y.y.0.Z ",
"` >.r.0.0.w.w.0.w.w.w.w.e.<.<.<.e.,.<.2.e.Z       m         Z r.e.r.r.e.r.r.r.n       & *     . $.H H H @.*.H H H &.t.y.t.y.0.A ",
"` >.e.0.w.w.w.w.w.w.e.w. .9 9 P _ 9 9 I e.+     + e.        Z e.e.e.e.r.e.r.-       * O.      m 4 : : : / 1 : : , 7.t.t.t.y.w.A ",
"' 3.e.0.w.q.w.w.w.w.w.5.y 8 u 2.e 8 p q.Z       Z e.+       Z e.e.e.e.e.r.*       & e.&     X G : : : S g > : : J y.y.t.t.y.0.A ",
"' >.e.0.q.w.6.w.w.w.w.4.-.-.<.5.-.-.2.e.+     + w.w.+       Z e.e.e.e.e.&       z e.O.      v < , , 3 @., , , 5 t.r.t.t.t.y.w.Z ",
"` 1.e.q.q.q.q.w.6.w.-.i i U ..i i R 6.Z       Z e.e.+       h e.e.e.3.@       n e.e.*     X r.t.e.r.r.r.r.r.r.r.r.r.t.t.t.y.0.A ",
"] 1.e.q.6.q.6.6.w.6.p 9 t 2.y 9 y 5.e.o     + e.w.e.+       l e.e.3.o       n e.e.Z       n e.e.r.e.e.e.r.r.e.r.r.r.e.r.r.y.0.A ",
"] >.e.5.6.q.q.q.6.:.U U =.;.U U -.q.b       Z 6.w.e.+       l e.3.o       n e.e.e.+     X e.e.e.e.r.e.t.r.e.e.r.r.r.r.r.t.y.6.A ",
"] >.e.6.q.6.6.w.6.q.q.6.w.6.q.w.q.q.X     + q.q.q.q.+       l ( o     . ( 0.e.e.Z       n S 6 6 g 8.S 6 6 6 9.r.e.r.e.r.r.y.w.Z ",
"] >.w.6.6.6.6.6.U t t _ I t t =.6.n       ( e.e.q.e.+       @ .     . ( e.e.w.e.+     + D : : : g G : : : g e.e.e.e.e.r.r.y.6.A ",
"] +.w.6.6.6.6.-.q 9 j ..9 9 K 6.6.X     % e.6.6.q.q.+             . ` w.0.0.0.Z       C , : : 2 %., : : 2 w.e.e.e.r.e.e.e.y.6.A ",
"] >.q.5.6.6.6.) U U 1.) U U 4.q.n       } 6.6.q.e.6.h           X T w.w.w.0.w.+     + D 6 6 6 #.F 6 6 6 #.e.e.e.e.e.e.r.r.t.6.A ",
"` >.e.5.5.5.;.L L Q -.L L ) 6.6.X     % q.6.q.6.6.6.h         o >.w.q.w.w.q.Z       Z w.w.0.w.e.e.w.e.w.e.e.e.e.e.e.0.e.e.y.6.A ",
"] +.q.5.5.5.d 9 w :.p 8 e 1.5.h       } 6.q.6.q.q.6.l       o >.w.q.q.q.0.w.o     + q.w.w.w.w.w.w.e.e.w.w.e.w.e.e.e.w.e.e.y.6.A ",
"] >.q.5.5.) d d Q ! d d ) 5.>..     % q.6.6.6.6.6.6.h     o 1.q.q.q.q.q.0.b       Z w.w.w.w.w.0.w.w.w.e.w.w.e.e.w.e.e.e.e.r.5.A ",
"] +.6.5.5.5.5.5.5.5.6.5.5.5.h       } 5.5.q.6.6.6.6.N . h 6.q.q.6.q.q.q.0.X     + q.q.q.w.w.w.w.w.w.w.w.e.0.w.w.e.e.w.e.e.t.6.A ",
"] +.6.5.5.5.5.5.5.5.5.5.5.+..     = 5.5.6.5.6.6.6.6.6.6.6.q.6.6.q.6.q.6.b       T q.q.q.q.q.q.w.w.w.w.w.w.w.e.w.w.w.e.w.e.t.5.A ",
"[ +.6.5.5.5.4.5.5.5.5.5.4.h     . 1.5.q.6.6.6.6.6.6.6.6.6.6.6.6.6.6.6.q.X     = q.6.w.w.6.w.w.w.0.w.w.w.w.w.w.w.w.e.w.w.w.t.6.A ",
"[ >.6.4.5.5.5.4.4.5.5.5.4.+     N 5.5.5.5.5.6.5.5.6.5.6.6.6.6.6.6.6.6.T     o >.6.q.6.w.6.q.w.6.w.w.q.q.w.w.w.w.w.w.w.w.w.r.5.A ",
"[ +.5.4.4.4.4.4.5.4.4.5.5.% X V 4.4.5.5.5.6.5.5.5.6.5.6.5.6.6.6.6.6.6.} . % :.6.6.q.6.6.q.w.6.w.6.q.q.q.w.6.w.w.w.w.w.w.0.r.6.A ",
"[ O.5.3.3.4.4.4.4.4.4.4.4.4.5.4.5.4.5.5.5.5.5.5.5.6.5.6.5.5.6.6.6.6.4.6.6.6.6.6.6.6.q.6.6.6.q.6.q.q.6.q.6.w.6.6.0.w.w.6.0.r.5.A ",
"[ +.5.3.4.4.3.4.4.3.3.4.4.4.4.4.4.4.4.4.5.5.5.5.5.5.5.6.5.6.5.5.6.5.6.6.6.6.6.5.6.6.6.6.6.6.6.6.6.6.q.6.6.w.6.w.6.w.q.q.w.r.5.A ",
"] +.5.3.3.3.4.3.3.4.4.4.4.4.4.4.4.4.4.5.4.5.5.5.5.5.5.5.5.5.6.5.5.6.5.5.6.5.6.6.5.6.6.6.6.6.6.6.6.q.q.6.w.6.w.6.6.w.q.w.6.e.5.A ",
"[ O.5.3.3.4.3.3.4.3.4.4.3.4.4.4.4.4.4.4.4.4.4.4.4.4.5.5.5.5.5.5.5.6.5.6.5.6.6.6.6.6.6.6.6.6.6.6.6.6.6.6.6.6.6.6.6.6.q.6.w.e.5.A ",
"[ +.4.3.3.3.3.3.1.4.1.4.3.3.4.3.4.4.4.3.4.4.4.4.5.5.4.4.5.5.5.4.5.5.5.5.5.5.5.6.5.5.6.5.6.6.6.6.6.6.6.6.w.6.6.6.6.w.6.q.6.e.5.A ",
"] +.4.3.3.3.1.3.3.4.1.4.3.4.4.1.4.3.4.4.4.4.3.4.4.4.4.4.4.4.5.5.5.5.5.5.5.5.6.5.5.5.5.6.6.4.6.6.6.6.6.6.6.6.6.6.6.q.6.6.6.e.4.A ",
"[ O.3.1.1.3.3.3.1.1.3.4.3.3.1.4.3.4.3.4.3.3.4.4.4.4.3.4.5.4.5.4.4.5.5.4.5.5.4.5.6.5.5.5.6.4.6.4.4.6.6.5.5.6.6.6.6.6.6.6.6.e.5.T ",
"] O.4.3.1.3.1.3.3.3.4.1.4.1.4.3.3.3.3.4.4.3.3.4.3.4.4.4.4.4.4.4.4.4.4.4.4.4.4.5.5.5.5.5.6.6.6.6.6.5.6.6.6.6.6.6.6.6.6.6.6.w.5.A ",
"} X.4.1.1.1.1.1.1.1.1.1.1.1.4.1.3.1.3.3.3.3.3.4.4.3.3.4.3.4.3.4.4.4.4.4.4.5.4.5.5.5.5.5.4.4.4.4.4.6.4.6.4.6.4.6.6.6.5.6.6.w.5.Z ",
"] O.1.1.1.1.1.1.1.3.1.1.2.1.3.3.3.3.1.1.3.3.3.3.3.3.3.3.3.3.3.3.4.4.5.3.5.3.4.4.4.4.4.6.5.5.6.4.5.5.5.5.5.6.5.5.5.5.6.6.6.q.w.B ",
"b e.1.1.1.1.1.1.1.1.1.1.1.3.1.1.1.3.3.3.3.3.1.3.3.3.3.3.3.3.5.3.3.4.3.5.3.4.4.4.3.6.4.4.4.3.3.6.5.5.5.5.5.5.5.5.5.6.5.5.6.4.y.0 ",
"u.0.O.2.>.1.1.1.1.1.1.1.1.1.1.1.3.2.3.1.1.3.1.3.3.3.3.3.3.3.3.3.3.4.4.3.3.3.5.3.5.3.4.3.5.5.3.4.5.5.3.5.5.5.5.5.5.5.5.6.w.4.3.u.",
"u.m t.O.1.>.>.1.1.1.1.1.1.3.1.1.1.1.1.1.1.3.3.1.2.3.3.3.3.3.3.3.3.3.<.3.4.3.5.3.3.3.5.3.3.5.5.3.4.4.5.5.5.5.5.5.5.5.5.w.3.t.u.u.",
"u.u.} 0.+.3.1.>.1.1.1.1.1.1.1.1.1.1.3.1.1.1.3.3.2.2.3.1.3.3.3.3.3.3.3.3.3.4.3.3.2.3.3.3.3.3.3.3.3.5.3.5.5.4.5.5.5.5.0.>.r.( u.u.",
"u.u.u.{ t.+.+.1.1.1.1.1.1.3.3.2.3.3.3.3.3.3.3.4.3.4.4.3.4.3.3.5.5.5.3.4.4.4.5.4.6.3.6.6.6.6.6.6.6.5.6.6.6.6.5.6.6.3.3.y.A u.u.u.",
"u.u.u.u.m 4.t.5.1.>.>.1.>.1.1.1.3.>.>.3.1.1.3.>.>.3.1.3.3.3.1.1.3.1.3.1.3.3.3.3.3.3.3.3.3.3.3.3.3.3.3.3.4.3.3.4.0.r.3.u.u.u.u.u.",
"u.u.u.u.u.u.x V Z T A T A T A A A A A A A A A A A A A A A A A A A A A A A T A A A A A A A A A A A A A A A A A Z B h u.u.u.u.u.u."
};
