/* XPM */
static const char *MatrixEncoderl8to2[] = {
/* columns rows colors chars-per-pixel */
"234 60 87 1 ",
"  c #000000",
". c #0B0B0B",
"X c #100F0C",
"o c #13130F",
"O c #141414",
"+ c #1B1B1B",
"@ c #20201D",
"# c #242424",
"$ c #2C2C2C",
"% c #343434",
"& c #3C3C3C",
"* c #444444",
"= c #4C4C4C",
"- c #545454",
"; c #5B5B5B",
": c #626262",
"> c #686763",
", c #686868",
"< c #727272",
"1 c #C60000",
"2 c #C9000C",
"3 c #CB0113",
"4 c #CC0619",
"5 c #CD0A1D",
"6 c #CE0F21",
"7 c #CE1325",
"8 c #CF1728",
"9 c #CF192A",
"0 c #D01C2D",
"q c #D11F30",
"w c #D12232",
"e c #D32738",
"r c #D42C3C",
"t c #D53343",
"y c #D63947",
"u c #D73D4B",
"i c #D83F4E",
"p c #D84351",
"a c #D94856",
"s c #DB4D5A",
"d c #DB515E",
"f c #DC5562",
"g c #DD5A67",
"h c #DE5E6B",
"j c #DF646F",
"k c #DF6470",
"l c #E16A75",
"z c #0E2089",
"x c #13258C",
"c c #16288E",
"v c #192A8F",
"b c #1C2D90",
"n c #1F3092",
"m c #233494",
"M c #273896",
"N c #293A97",
"B c #2C3C99",
"V c #303F9A",
"C c #2F409A",
"Z c #34449C",
"A c #38479E",
"S c #3A499F",
"D c #3D4CA1",
"F c #404FA2",
"G c #4453A4",
"H c #4857A6",
"J c #4A59A7",
"K c #4353A8",
"L c #4D5BA9",
"P c #515EAA",
"I c #5562AC",
"U c #5966AE",
"Y c #5B68AF",
"T c #5361B1",
"R c #5E6AB0",
"E c #616DB2",
"W c #6571B4",
"Q c #6975B6",
"! c #6875BE",
"~ c #6E7AB9",
"^ c #717CBA",
"/ c #7681BC",
"( c #7A84BE",
") c #7D87C0",
"_ c #7D88C0",
"` c #838DC3",
"' c None",
/* pixels */
"''''''''''''''''''''''''''''''''''''''''''''''''''''''''''''''''''''''''''''''''''''''''''''''''''''''''''''''''''''''''''''''''''''''''''''''''''''''''''''''''''''''''''''''''''''''''''''''''''''''''''''''''''''''''''''''''''''''''''",
"'''''''''''''''''''''''''''''''''''''''''''''''''''''''''O''''''''''''''''''''#'''''''''''''''''''''''''''''''''''''''''''''''''''''''''''''''''''''''''''''''''''''''''''''''''''''''''''''''''''''''''''''''''''''''''''''''''''''''''''",
"''''''''''''''''''''''''''''''''''''''''''''''''''''''''. %''''''''''''''''''  '''''''''''''''''''''''''''''''''''''''''''''''''''''''''''''''''''''''''''''''''''''''''''''''''''''''''''''''''''''''''''''''''''''''''''''''''''''''''''",
"'''''''''''''''''''''''''''''''''''''''''''''''''''''''+  .'''''''''''''''''   '''''''''''''''''''''''''''''''''''''''''''''''''''''''''''''''''''''''''''''''''''''''''''''''''''''''''''''''''''''''''''''''''''''''''''''''''''''''''''",
"'''''''''''''''''''''''''''''''''''''''''''''''''''''''    ''''''''''''''''   O'''''''''''''''''''''''''''''''''''''''''''''''''''''''''''''''''''''''''''''''''''''''''''''''''''''''''''''''''''''''''''''''''''''''''''''''''''''''''''",
"''''''''''''''''''''''''''''''''''''''''''''''''''''''.    '''''''''''''''    =''''''''''''''''''''''''''+$##$####$###$#O''''''+####$####$##''''''''''''''''''''''''''''''''''''''''''''''''''''''''''''''''''''''''''''''''''''''''''''''",
"'''''''''''''''''''''''''''''''''''''''''''''''''''''>     '''''''''''''*    X''''''''''''''  '''''''''$                 X''''               #'''''''  '''''' $''''''''''''' .''''''''''''''''''''''''''''''''''''''''''''''''''''''''''''",
"'''''''''''''''''''''HZZD'''BFM'''FSBU''QBDB'''ZDM!''O     ''''''''''''      :'''''''''''''   '''''''''                  -'''%               .''''''+ $'''''   '''''''''''$  $''''''''''''''''''''''''''''''''''''''''''''''''''''''''''''",
"'''''''''''''''''''''mDn_''VZBF''ImDn'''MAmI''GMAB'''      -''''''''''$ ..  .'''''''''''''    ''''''''& . . ..     .. . %''''    . .  .  .   .''''''  '''''.   ='''''''''    '''''''''''''''''''''''''''''''''''''''''''''''''''''''''''''",
"''''''''''''''''''''SMMA''^vZn'''MVmH''UbZM'''mZmT''O  &.  $'''''''''#  &$  &''''''''''''     ''''''''''''''''  &'''''''''''%  +'''''''''''  +'''''+ #''''''   .'''''''$   +''''''''''''''''''''''''''''''''''''''''''''''''''''''''''''''",
"''''''''''''''''''''D'L''''J'P'''D'J'''L'J''''F'G'''  *'   #''''''''   $'.  ''''''''''''      '''''''''''''''# .''''''''''''  -''''''''''''  -'''''  '''''''O   -'''''O   ''''''''''''''''''''''''''''''''''''''''''''''''''''''''''''''''",
"'''''''''''''''''''''''''''''''''''''''''''''''''''.  ''   +'''''''   O'-  *'''''''''''  X#   '''''''''''''''  ;'''''''''''%  ''''''''''''*  '''''O O''''''''   O''''   +'''''''''''''''''''''''''''''''''''''''''''''''''''''''''''''''''",
"'''''''''''''''''''NZbU''GMCM'''mAb^''DNNA'''mAv'''  +''.  O''''''.  &''  .'''''''''''   ''   ''''''''''''''%  ''''''''''''  :''''''''''''. &'''''  '''''''''.   +'+   &''''''''''''''''''''''''''''''''''''''''''''''''''''''''''''''''''",
"''''''''''''''''''RMDB'''BSMP''IMAN'''mDm'''DCCD''X  '''+  .'''''.  '''$  ;''''''''''   '''   ''''''''''''''  &'''''''''''$  ''''''''''''O  '''''X @''''''''';       X''''''''''''''''''''''''''''''''''''''''''''''''''''''''''''''''''''",
"''''''''''''''''''mNmF''IcNB'''cVvQ''DmMZ''/xCb'''  +'''#   ''''   ''''   ''''''''''   ''''   '''''''''''''& .''''''''''''  .'''''''''''X  ''''''  '''''''''''      +'''''''''''''''8rrrrr4''''9rrrrt6a'''ewrrrrqe'''s0rrrre6''''9rrrrr6''",
"''''''''''''''''''W''''''''''''W'''''E'''''''''''#  ''''&   ''&  .''''&  &'''''''''   '''''.  -''''''''''''  ;'''''''''''%                -'''''# +'''''''''''.    ,'''''''''''''''6690003e'''e4090054'''d3009q82''''2900092l'''3800002i''",
"'''''''''''''''''''''''''''''''''''''''''''''''''  #'''''   ''  .'''''   ''''''''-   ''''''   -'''''''''''#  ''''''''''''                &''''''  ''''''''''''    .'''''''''''''''w5wqww68'''p3wwqw04''''2wwqww4j'''39wwqw3y'''86wwqw60'''",
"''''''''''''''''''''''''''''''''''''''''''''''''+  ''''''      .'''''*  &'''''''*   .'''''#   $'''''''''''  -'''''''''''*              .'''''''$ O'''''''''''      ''''''''''''''d3wqww03''''2wwqww3f'''57wqqw4r'''q5wwqw65'''p3wwqw02''''",
"''''''''''''''''''/''''''''''''^''''''''''''/'''  O''''''      ''''''  .''''''';              .''''''''''&  ''''''''''''   #':;;;'*    ''''''''  ''''''''''+       ='''''''''''''30qqqw2d'''67w0qw3e'''r4wqqw66'''p2wqqw03''''2wqqqw2l''''",
"'''''''''''''''EcNc'''mMcG''LvMn'''vNxY''DbmB''X  '''''''    +''''''&  -'''''';               O''''''''''  %'''''''''''$  '''''''''.  .'''''''# +'''''''''   .$+   .''''''''''''2376663r'''72666546'''y1666653'''k1666662h'''2466662y'''''",
"'''''''''''''''MZMG''UmZM'''bDmP''GMCC''`bSb'''  +'''''''   %'''''''   ''''''*                &'''''''''* .''''''''''''  *'''''''''#   '''''''  ''''''''#   %'''O   ''''''''''''''''''''''''''''''''''''''''''''''''''''''''''''''''''''''",
"''''''''''''''RMAM'''NAME''LNZV'''MSm_''DVVK''@  ''''''''O %'''''''&  *'''''   X#'#####''':.  O'''''''''  ='''''''''''%  ''''''''''%   &'''''+ O'''''''   X'''''-   +'''''''''''''''''''''''''''''''''''''''''''''''''''''''''''''''''''''",
"''''''''''''''''''''''''''''''''''''''''''''''  +''''''''''''''''''   '''''=   ''''''''''''O  O''''''''&  ''''''''''''  *'''''''''''   *'''''  ''''''#   O'''''''    '''''''''''''''''''''''''''''''''''''''''''''''''''''''''''''''''''''",
"'''''''''''''''''''''''''''''''''''''''''''''#  '''''''''''''''''';  *'''''  +'''''''''''''.  *''''''''  ;'''''''''''=  ''''''''''''   '''''$ +'''''O  X'''''''''*   *''''''''4900003u'''88000q49'''t6000064'''f4000002''''4900qq2g'''''''",
"'''''''''''''GbMb'''xVxH''Zmmm''^cVx'''mMbD''  %''''''''''''''''''. X'''''# X''''''''''''''$ X''''''''& .''''''''''''  ;''''''''''''. *'''''  '''''$  X'''''''''''   ''''''''85000q40'''t3009064'''k2000002''''2900902a'''65000q3w''''''''",
"'''''''''''''MDm~''GVCF''(mFm'''ZZMU''RMDN''' %'''''''''''''''''''#X''''''# '''''''''''''''$ '''''''''; '''''''''''''+''''''''''''''+.''''''.''''''+ '''''''''''''% ''''''''t3eqww84'''j2wwwww3''''2qwqww3a'''48wqwe5e'''w4ewww76'''''''''",
"''''''''''''SCZD'''MDM'''CZCJ''LMDM'''MDMW'''''''''''''''''''''''''''''''''''''''''''''''''''''''''''''''''''''''''''''''''''''''''''''''''''''''''''''''''''''''''''''''''h3wwwqw3''''30ww0w4u'''96wwqw5q'''r5wqww83'''g3wwwqq2''''''''''",
"'''''''''''''''''''''''''''''''''''''''''''''''''''''''''''''''''''''''''''''''''''''''''''''''''''''''''''''''''''''''''''''''''''''''''''''''''''''''''''''''''''''''''''38000w2i'''64w00w40'''t2w00q84'''g2q00002''''2900qw2s''''''''''",
"''''''''''''''''''''''''''''''''''''''''''''''''''''''''''''''''''''''''''''''''''''''''''''''''''''''''''''''''''''''''''''''''''''''''''''''''''''''''''''''''''''''''''w7eeew9r'''i4rewe00''''4eeeew6''''5wweee6d'''88eeew8t'''''''''''",
"''''''''''''''''''''''''''''''''''''''''''''''''''''''''''''''''''''''''''''''''''''''''''''''''''''''''''''''''''''''''''''''''''''''''''''''''''''''''''''''''''''''''''''''''''''''''''''''''''''''''''''''''''''''''''''''''''''''''''",
"'''''''''''Q'Q''''Q'~'''E'Q''''~~''''E'Q'''''''''                %''''''''''''''''''''''''''''''''''''''''''''''''''''''''''''''''''''''''''''''''''''''''''''''''''''''''''''''''''''''''''''''''''''''''''''''''''''''''''''''''''''''''",
"''''''''''WcVx'''MMcP''IvMb'''mMzQ''DbnN''''''''                  ''''''''''''''''''''''''''''''''''''''''''''''''''''''''''''''''''''''''''''''''''''''''''''''''''''''''''''''''''''''''''''''''''''''''''''''''''''''''''''''''''''''''",
"''''''''''VSVL''PMDM'''mDMR''FVZC'''mDm''''''''$                  O'''''''''''''''''''''''''''''''''''''''''''''''''''''''''''''''''''''''''''''''''''''''''''''''''''''''''''''''''''''''''''''''''''''''''''''''''''''''''''''''''''''''",
"'''''''''QvCM'''mVmP''PbVM'''bCmW''DmMS''''''''                   X''''''.''''''''''''''''''''''''''$          ''''''''''''.            #'''''''''         .''''''''''''''+''''''''''#''''''''''             '''''''''''''''''''''''''''''",
"''''''''''''''''''''''''''''''''''''''''''''''%   #''''''''''X    ''''''# .''''''''''''''# '''''''O             *''''''''#               %''''''%             .''''''''''              ''''''''               ''''''''''''''''''''''''''''",
"'''''''''P'I'''Q'R''''Y'U'''U'U''''R'E''''''''   '''''''''''''.  O'''''=   '''''''''''''=  ''''''$               '''''''                  ''''''               =''''''''.              .''''''                ''''''''''''''''''''''''''''",
"''''''''FMNM'''bZc^''ZMMC''QbCv'''NVvJ'''''''*  $'''''''''''''%  ''''''    +''''''''''''. %'''''+                ''''''.                 O'''''$   .. . .       '''''''=               .'''''*                ='''''''''''''''''''''''''''",
"''''''''MSML''GVZB''`bDm'''VZCZ''QmDM''''''''.  ''''''''''''''% ''''''=     ''''''''''':  ''''';  .+''''''''.   .'''''$  O'''''''''''=   -'''''  ='''''''''X    '''''''.  .''''''''O   +'''''   #'''''''''%   ''''''''''''''''''''''''''''",
"'''''''PMZF'''MDN'''GZZL''^MDV'''CDMW'''''''=  .''''''''''''''''''''''.     #''''''''''. $'''''   '''''''''''&  *'''''  .'''''''''''''.  '''''& .'''''''''''    %''''''  :''''''''''#  '''''=  -'''''''''''X  ''''''''''''''''''''''''''''",
"''''''''''''''''''''''''''''''''''''''''''''.  #'''''''''''''''''''''-       ''''''''''  '''''#  ''''''''''''# .'''''.  ''''''''''''''  O'''''  ;'''''''''''*   $'''''+ +'''''''''''* +'''''  %''''''''''''. %''''''''''''''''''''''''''''",
"''''''''''''''''''''''''''''''''''''''''''''   .+        +'''''''''''O ##    $''''''''O #'''''  ='''''''''''''.''''''  '''''''''''''''  '''''$  '''''''''''''   ''''''  ''''''''''''' ''''';  '''''''''''''  '''''''''''''''''''''''''''''",
"'''''''''''''''''''''''''''''''''''''''''''.              '''''''''''  ''     ''''''''  '''''& .''''''''''''''''''''O +''''''''''''''$ .'''''  ='''''''''''''   '''''+ .'''''''''''''''''''  $''''''''''''. +'''''''''''''''''''''''''''''",
"''''''''H''''G'P'''F'G''''''''''D'H''''''''              .''''''''''+ +''.    %''''''@ X'''''  =''''''''''''''''''''  '''''''''''''''  '''''%  ''''''''''''''  .'''''   +''''''''''''''''';  ''''''''''''%  ''''''''''''''''''''''''''''''",
"'''''/nSv'''VCMA''UmZM'''MZnJ''GMZV'''''''X              '''''''''''  '''-     ''''''  '''''& .''''''''''''''''''''+ +''''''''''''''& .'''''  *'''''''''''''-  &''''X           .'''''''''.  :''''''''''$  &''''''''''''''''''''''''''''''",
"'''''ZZMP''QmAM'''NAnQ''LMCZ'''MDb)'''''''              +''''''''''# .''''.    &''''# .'''''  *''''''''''''''''''''  '''''''''''''''  ;''''*  ''''''''''''''.  '''''            #'''''''''    OOOOOOOOO.  +'''''''''''''''''''''''''''''''",
"''''RVGM'''ZFVR''HZFZ'''VGM^''GAAD'''''''X   $'''''''''''''''''''''  '''''&     ''''  -''''*  ''''''''''''''''''''# +''''''''''''''&  '''''. $'''''''''''''<  $''''O            '''''''''.                ''''''''''''''''''''''''''''''''",
"'''''''''''''''''''''''''''''''''''''''''   ''''''''''''''''''''''# .''''''     -''&  '''''. &''''''''''''''''''''  =''''''''''''''  ;''''*  ''''''''''''''   '''''   .... ..  ''''''''''               +'''''''''''''''''''''''''''''''''",
"''''''''''''''''''''''''''''''''''''''''+  -''''''''''''''''''''''  '''''''&     ''  ;''''*  ''''''''''''''''''''# .''''''''''''''*  '''''X #'''''''''''''X  ;''''+  #''''''''''''''''''+  .      .    -''''''''''''''''''''''''''''''''''",
"'''YMZZ'''mDm~''GCVG''(MDM'''ZZNI'''''''  .''''''''''''''  ''''''$ .''''''''     ';  '''''. #''''''''''''''''''''  -''''''''''''''  -''''=  '''''''''''''$  +'''''  *'''''''''''''''''''  .''''''''+   '''''''''''''''''''''''''''''''''''",
"'''mSb^''DNVZ'''bDb'''MZMJ''JmZm'''''''$  -'''''''''''''+  ''''''  -''''''''#    .. -'''''  '''''''''''''. '''''*  ''''''''''''''%  '''''O #''''''''''''+  .'''''%  '''''''''''' $'''''%  '''''''''$   '''''''''''''''''''''''''''''''''''",
"''PVSS'''MDC^''GZZG''^MDV'''ZSCU'''''''   '''''''''''''.  %'''''$ .''''''''''       '''''+  ''''''''''''% X'''''  .''''''''''''''  ='''''  ''''''''''''O   ''''''  $'''''''''''# $'''''  ''''''''''%   '''''''''''''''''''''''''''''''''''",
"''''''''''''''''''''''''''''''''''''''*   .'''''''''%.    ''''''  *''''''''''#     *'''''   '''''''''''.  ''''''   ''''''''''''#   '''''+ $''''''''''$    ''''''&  #''''''''''   '''''% .''''''''''&   &''''''''''''''''''''''''''''''''''",
"''''''''''''''''''''''''''''''''''''''                   ''''''$  ''''''''''''     '''''*   X%%$$%$%$.   +'''''$   X&$$%%$%$%%X   ''''''  %'''''''$.    +'''''''    %%$%%$%$.   &'''''  -'''''''''''   :''''''''''''''''''''''''''''''''''",
"'''''''''''''''''''''''''''''''''''''*                  '''''''  *''''''''''''.   &'''''                +''''''.                 ''''''+               #'''''''*               +'''''% .''''''''''''   '''''''''''''''''''''''''''''''''''",
"'''''''''''''''''''''''''''''''''''''.                X'''''''# .''''''''''''''   ''''''$              X'''''''+                '''''''              O'''''''''.               ''''''  '''''''''''''  &'''''''''''''''''''''''''''''''''''",
"'''''''''''''''''''''''''''''''''''''.              .'''''''''. '''''''''''''''  ''''''''            +''''''''''              .''''''''           .#'''''''''''             .'''''''' *''''''''''''' +''''''''''''''''''''''''''''''''''''",
"'''''''''''''''''''''''''''''''''''''' ''''''''''''+'''''''''''''''''''''''''''''''''''''' '''''''' ''''''''''''' '''''''''' +''''''''' '''''''''''''''''''''''' ''''''''' '''''''''''''''''''''''''''''''''''''''''''''''''''''''''''''''",
"''''''''''''''''''''''''''''''''''''''''''''''''''''''''''''''''''''''''''''''''''''''''''''''''''''''''''''''''''''''''''''''''''''''''''''''''''''''''''''''''''''''''''''''''''''''''''''''''''''''''''''''''''''''''''''''''''''''''''",
"''''''''''''''''''''''''''''''''''''''''''''''''''''''''''''''''''''''''''''''''''''''''''''''''''''''''''''''''''''''''''''''''''''''''''''''''''''''''''''''''''''''''''''''''''''''''''''''''''''''''''''''''''''''''''''''''''''''''''",
"''''''''''''''''''''''''''''''''''''''''''''''''''''''''''''''''''''''''''''''''''''''''''''''''''''''''''''''''''''''''''''''''''''''''''''''''''''''''''''''''''''''''''''''''''''''''''''''''''''''''''''''''''''''''''''''''''''''''''"
};
