/* XPM */
static const char *MatrixEncoderl6to2[] = {
/* columns rows colors chars-per-pixel */
"234 60 77 1 ",
"  c #000000",
". c #0B0B0B",
"X c #141414",
"o c #1B1B1B",
"O c #242424",
"+ c #2B2B2C",
"@ c #333333",
"# c #3B3B3B",
"$ c #434343",
"% c #4B4B4B",
"& c #535353",
"* c #5B5B5B",
"= c #626262",
"- c gray43",
"; c #C70005",
": c #C80007",
"> c #C9000D",
", c #CA0114",
"< c #CC0619",
"1 c #CD0A1D",
"2 c #CD0E21",
"3 c #CF1325",
"4 c #CF1628",
"5 c #CF1829",
"6 c #D01D2E",
"7 c #D11F30",
"8 c #D12132",
"9 c #D42D3D",
"0 c #D53342",
"q c #D63847",
"w c #D73D4C",
"e c #D84452",
"r c #DA4D5B",
"t c #DB515E",
"y c #DC5562",
"u c #DD5B67",
"i c #DE5E6A",
"p c #DF6571",
"a c #E06773",
"s c #E06B76",
"d c #E16F79",
"f c #0C1F89",
"g c #0D2089",
"h c #12258C",
"j c #16298E",
"k c #192A8F",
"l c #1D2E91",
"z c #1F3092",
"x c #233494",
"c c #273896",
"v c #293997",
"b c #2D3D99",
"n c #2F409A",
"m c #34449C",
"M c #39499F",
"N c #3D4CA1",
"B c #404FA2",
"V c #4352A4",
"C c #4957A6",
"Z c #4A58A7",
"A c #4E5BA9",
"S c #515FAB",
"D c #5562AC",
"F c #5966AE",
"G c #5C68AF",
"H c #5E6BB1",
"J c #626EB2",
"K c #6571B4",
"L c #6A75B6",
"P c #6F7AB7",
"I c #6D79B8",
"U c #727CBA",
"Y c #7681BC",
"T c #7A84BE",
"R c #7E88C0",
"E c #838CC3",
"W c None",
/* pixels */
"WWWWWWWWWWWWWWWWWWWWWWWWWWWWWWWWWWWWWWWWWWWWWWWWWWWWWWWWOWWWWWWWWWWWWWWWWWWWWOWWWWWWWWWWWWWWWWWWWWWWWWWWWWWWWWWWWWWWWWWWWWWWWWWWWWWWWWWWWWWWWWWWWWWWWWWWWWWWWWWWWWWWWWWWWWWWWWWWWWWWWWWWWWWWWWWWWWWWWWWWWWWWWWWWWWWWWWWWWWWWWWWWWWWWWWWWWW",
"WWWWWWWWWWWWWWWWWWWWWWWWWWWWWWWWWWWWWWWWWWWWWWWWWWWWWW@  +WWWWWWWWWWWWWWWWW&  WWWWWWWWWWWWWWWWWWWWWWWWWWWWWWWWWWWWWWWWWWWWWWWWWWWWWWWWWWWWWWWWWWWWWWWWWWWWWWWWWWWWWWWWWWWWWWWWWWWWWWWWWWWWWWWWWWWWWWWWWWWWWWWWWWWWWWWWWWWWWWWWWWWWWWWWWWWW",
"WWWWWWWWWWWWWWWWWWWWWWWWWWWWWWWWWWWWWWWWWWWWWWWWWWWWWW   OWWWWWWWWWWWWWWWW@   WWWWWWWWWWWWWWWWWWWWWWWWWWWWWWWWWWWWWWWWWWWWWWWWWWWWWWWWWWWWWWWWWWWWWWWWWWWWWWWWWWWWWWWWWWWWWWWWWWWWWWWWWWWWWWWWWWWWWWWWWWWWWWWWWWWWWWWWWWWWWWWWWWWWWWWWWWWW",
"WWWWWWWWWWWWWWWWWWWWWWWWWWWWWWWWWWWWWWWWWWWWWWWWWWWWW    OWWWWWWWWWWWWWWW    oWWWWWWWWWWWWWWWWWWWWWWWWWWWWWWWWWWWWWWWWWWWWWWWWWWWWWWWWWWWWWWWWWWWWWWWWWWWWWWWWWWWWWWWWWWWWWWWWWWWWWWWWWWWWWWWWWWWWWWWWWWWWWWWWWWWWWWWWWWWWWWWWWWWWWWWWWWWW",
"WWWWWWWWWWWWWWWWWWWWWWWWWWWWWWWWWWWWWWWWWWWWWWWWWWWWW    oWWWWWWWWWWWWWW$    WWWWWWWWWWWWWWW+WWWWWWWWWW+oooooooooooooooXoWWWWWWOXooooooooooo@WWWWWWWWW%WWWWWWWWWWWWWWWWWWWWWWWWWWWWWWWWWWWWWWWWWWWWWWWWWWWWWWWWWWWWWWWWWWWWWWWWWWWWWWWWWWW",
"WWWWWWWWWWWWWWWWWWWWWWWWWWWWWWWWWWWWWWWWWWWWWWWWWWWWo    XWWWWWWWWWWWWWO    XWWWWWWWWWWWWWW  WWWWWWWWW%                  WWWW$               WWWWWWWW  WWWWW. #WWWWWWWWWWWWW  WWWWWWWWWWWWWWWWWWWWWWWWWWWWWWWWWWWWWWWWWWWWWWWWWWWWWWWWWWWW",
"WWWWWWWWWWWWWWWWWWWWWWWWWWWWWWWWWWWWWWWWWWWWWWWWWWWW      WWWWWWWWWWWW      WWWWWWWWWWWWWW   WWWWWWWWW                   WWWW                XWWWWWW  #WWWWW  .WWWWWWWWWWW#  OWWWWWWWWWWWWWWWWWWWWWWWWWWWWWWWWWWWWWWWWWWWWWWWWWWWWWWWWWWWW",
"WWWWWWWWWWWWWWWWWWWWWWWWWWWWWWWWWWWWWWWWWWWWWWWWWWW.      WWWWWWWWWWW+     .WWWWWWWWWWWWW.   WWWWWWWWW ......    X......WWWWO   .........    oWWWWW+  WWWWW    WWWWWWWWWWX   WWWWWWWWWWWWWWWWWWWWWWWWWWWWWWWWWWWWWWWWWWWWWWWWWWWWWWWWWWWWW",
"WWWWWWWWWWWWWWWWWWWWWWWWWWWWWWWWWWWWWWWWWWWWWWWWWWW  X#   WWWWWWWWWWX  #O  WWWWWWWWWWWWW     WWWWWWWWWWWWWWWW  XWWWWWWWWWWWW   WWWWWWWWWWW.  %WWWWW  #WWWWW+   XWWWWWWWW   XWWWWWWWWWWWWWWWWWWWWWWWWWWWWWWWWWWWWWWWWWWWWWWWWWWWWWWWWWWWWWW",
"WWWWWWWWWWWWWWWWWWWWWWWWWWWWWWWWWWWWWWWWWWWWWWWWWW+  WW   WWWWWWWWW   OW. .WWWWWWWWWWWW      WWWWWWWWWWWWWWWW  WWWWWWWWWWWWX  WWWWWWWWWWWW+  WWWWW+  WWWWWWW    WWWWWWO   #WWWWWWWWWWWWWWWWWWWWWWWWWWWWWWWWWWWWWWWWWWWWWWWWWWWWWWWWWWWWWWW",
"WWWWWWWWWWWWWWWWWWWWWWWWWWWWWWWWWWWWWWWWWWWWWWWWWW   WW   #WWWWWWW   XW$  $WWWWWWWWWWW.      =WWWWWWWWWWWWWWX .WWWWWWWWWWWW  #WWWWWWWWWWWWX .WWWWW  oWWWWWWWo   @WWWW.   WWWWWWWWWWWWWWWWWWWWWWWWWWWWWWWWWWWWWWWWWWWWWWWWWWWWWWWWWWWWWWWWW",
"WWWWWWWWWWWWWWWFAASWWWVDBWWWFAADWWWBDBWWWDAAAWWWW#  $WW   #WWWWWW.  OWW   WWWWWWWWWWW   WW   %WWWWWWWWWWWWWW  WWWWWWWWWWWW%  WWWWWWWWWWWWW  WWWWW*  WWWWWWWWW    WW+   OWWWWWWWWWWWWWWWWWWWWWWWWWWWWWWWWWWWWWWWWWWWWWWWWWWWWWWWWWWWWWWWWWW",
"WWWWWWWWWWWWWWWhbhCWWVlcxWWWjbjZWWVlxxWWWhbhGWWWW   WWW   @WWWWW   %WWo  %WWWWWWWWWW   %WW   +WWWWWWWWWWWWW.  WWWWWWWWWWWW  +WWWWWWWWWWWW.  WWWWW  OWWWWWWWWWX        #WWWWWWWWWWWWWWWWWWWWWWWWWWWWWWWWWWWWWWWWWWWWWWWWWWWWWWWWWWWWWWWWWWW",
"WWWWWWWWWWWWWWBkxbWWWkbgUWWnlxvWWWhnhYWWbxxbWWWW+  #WWW   XWWWW   +WWW   WWWWWWWWWW   $WWW    WWWWWWWWWWWWW  $WWWWWWWWWWW&  &WWWWWWWWWWW.  WWWWWW  WWWWWWWWWWW       WWWWWWWWWWWWWWWWWWWWWWWWWWWWWWWWWWWWWWWWWWWWWWWWWWWWWWWWWWWWWWWWWWWWW",
"WWWWWWWWWWWWWWCGCTWWHAFAWWWCGZTWWJADSWWWCFCTWWWW   WWWWo  .WWW.  XWWW$  XWWWWWWWWW.  #WWWW   oWWWWWWWWWWWW+  WWWWWWWWWWWW.  X         o.  %WWWWW. .WWWWWWWWWWW     +WWWWWWWWWWWWWWWr<77776,WWWW<67778,eWWW83777723WWWu,77777>aWWW<67778<0W",
"WWWWWWWWWWWWWWWWWWWWWWWWWWWWWWWWWWWWWWWWWWWWWWW%  oWWWWo  XWW   $WWWW   WWWWWWWWW   +WWWWW.  &WWWWWWWWWWWW  #WWWWWWWWWWW+                @WWWWWW  WWWWWWWWWWWW    .WWWWWWWWWWWWWWWW>77778,eWWW13877824WWWq,87777,WWWW>78778>eWWW61877821WW",
"WWWWWWWWWWWWWSDDDWWWCGCWWWDDDDWWWCJCWWWSFDFWWWW   WWWWWO  .O   =WWWW%  +WWWWWWWWX  .WWWWWW   +WWWWWWWWWWW#  WWWWWWWWWWWW.               $WWWWWWo XWWWWWWWWWWWo    OWWWWWWWWWWWWWWW23888817WWWw<87887,WWWW>87888,tWWW42888825WWWt>88877>WWW",
"WWWWWWWWWWWWThbhJWWMlxbWWEhbhUWWmxlnWWThbhPWWWW  oWWWWWO      WWWWWW.  WWWWWWWWX    $####    oWWWWWWWWWWW  $WWWWWWWWWWWW              .WWWWWWWW  WWWWWWWWWWW      .WWWWWWWWWWWWWW0<88785<WWWW:88888,tWWW22878816WWW0,88887>WWWW,77888,wWWW",
"WWWWWWWWWWWWMmmBWWFxBxWWWmmnNWWDxBxWWWnmbVWWWW.  WWWWWW#     WWWWWWW  oWWWWWWWO               WWWWWWWWWW+  WWWWWWWWWWWW    WWWWWWWO   OWWWWWWW. .WWWWWWWWW#        +WWWWWWWWWWWWu>87778>yWWW13777715WWW9,87775>WWWW>77678,yWWW22777814WWWW",
"WWWWWWWWWWWYxNcWWWBnnVWWWxNvWWWVnnVWWYxBvWWWWW  oWWWWWWW    WWWWWWW.  WWWWWWWo               OWWWWWWWWWW  OWWWWWWWWWWWW  %WWWWWWWWW   oWWWWWWW  *WWWWWWWWo   +WO   .WWWWWWWWWWWW>24333,wWWW5,433411WWWi;44343,sWWW>14334,8WWW9;534321WWWWW",
"WWWWWWWWWWWWWWWWWWWWWWWWWWWWWWWWWWWWWWWWWWWWWX  WWWWWWWW   WWWWWWWW  .WWWWWWX                @WWWWWWWWW&  WWWWWWWWWWWWo .WWWWWWWWWW   .WWWWWW+  WWWWWWWW    WWWW    $WWWWWWWWWWWWWWWWWWWWWWWWWWWWWWWWWWWWWWWWWWWWWWWWWWWWWWWWWWWWWWWWWWWWW",
"WWWWWWWWWWWWWWWWWWWWWWWWWWWWWWWWWWWWWWWWWWWWW   WWWWWWWW  WWWWWWWW.  WWWWWW   .WWWWWWWWWWWX  oWWWWWWWWW  oWWWWWWWWWWWW  WWWWWWWWWWW    WWWWWW  #WWWWWW@   #WWWWW%   XWWWWWWWWWWWWWWWWWWWWWWWWWWWWWWWWWWWWWWWWWWWWWWWWWWWWWWWWWWWWWWWWWWWWW",
"WWWWWWWWWWWWWWWWWWWWWWWWWWWWWWWWWWWWWWWWWWWW.  WWWWWWWWWWWWWWWWWWW   WWWWW@   WWWWWWWWWWWWo  XWWWWWWWWW  WWWWWWWWWWWWo .WWWWWWWWWWWo   WWWWW#  WWWWWW.   WWWWWWWW    WWWWWWWWWWWWWWWWWWWWWWWWWWWWWWWWWWWWWWWWWWWWWWWWWWWWWWWWWWWWWWWWWWWWW",
"WWWWWWWWWWWWWWWWWWWWWWWWWWWWWWWWWWWWWWWWWWWW   WWWWWWWWWWWWWWWWWWO  WWWWWW  oWWWWWWWWWWWWW.  +WWWWWWWWX oWWWWWWWWWWWW  *WWWWWWWWWWW@  .WWWWW  $WWWWW   oWWWWWWWWWo   @WWWWWWWW156778,9WWW8366774<WWWu<76778;pWWW167777,9WWW0177775,WWWWWWW",
"WWWWWWWWWWWWWWWWWWWWWWWWWWWWWWWWWWWWWWWWWWW#  WWWWWWWWWWWWWWWWWWW  OWWWWW. oWWWWWWWWWWWWWW@  WWWWWWWWW  WWWWWWWWWWWW. XWWWWWWWWWWWWO  WWWWWo  WWWWW   #WWWWWWWWWWW   WWWWWWWW51756612WWWt>75756:WWWW,47667>0WWW9,66672,WWWp:75757;iWWWWWWW",
"WWWWWWWWWWNVnGWWJmVmWWWmVnHWWJmVmWWWmVmFWWW%oWWWWWWWWWWWWWWWWWWWWooWWWWWWXOWWWWWWWWWWWWWWW$.WWWWWWWWWWXWWWWWWWWWWWWW$XWWWWWWWWWWWWWWXWWWWWW#XWWWWWW  WWWWWWWWWWWWWX WWWWWWWWw,88887>WWWW>87888,eWWW22877832WWWw,88787,WWWW,78788<9WWWWWWWW",
"WWWWWWWWWJlNxWWWcmvNWWLzNxWWWcmvMWWJxmcWWWWWWWWWWWWWWWWWWWWWWWWWWWWWWWWWWWWWWWWWWWWWWWWWWWWWWWWWWWWWWWWWWWWWWWWWWWWWWWWWWWWWWWWWWWWWWWWWWWWWWWWWWWWWWWWWWWWWWWWWWWWWWWWWWWWW,78788,eWWW23888823WWWe,88787:WWWW>78888,eWWW52878823WWWWWWWWW",
"WWWWWWWWWbmxFWWHzMzWWWvmxSWWDxmxWWWxmxFWWWWWWWWWWWWWWWWWWWWWWWWWWWWWWWWWWWWWWWWWWWWWWWWWWWWWWWWWWWWWWWWWWWWWWWWWWWWWWWWWWWWWWWWWWWWWWWWWWWWWWWWWWWWWWWWWWWWWWWWWWWWWWWWWWWW13877818WWWq,87776,WWWW>78778,rWWW32878814WWWe>88777,WWWWWWWWWW",
"WWWWWWWWLNAmWWWVAVHWWJNANWWWVANKWWKNSMWWWWWWWWWWWWWWWWWWWWWWWWWWWWWWWWWWWWWWWWWWWWWWWWWWWWWWWWWWWWWWWWWWWWWWWWWWWWWWWWWWWWWWWWWWWWWWWWWWWWWWWWWWWWWWWWWWWWWWWWWWWWWWWWWWWW9<87777<WWWd:887771tWWW13877738WWWq,877761WWWW,778771eWWWWWWWWWW",
"WWWWWWWWWWWWWWWWWWWWWWWWWWWWWWWWWWWWWWWWWWWWWWWWWWWWWWWWWWWWWWWWWWWWWWWWWWWWWWWWWWWWWWWWWWWWWWWWWWWWWWWWWWWWWWWWWWWWWWWWWWWWWWWWWWWWWWWWWWWWWWWWWWWWWWWWWWWWWWWWWWWWWWWWWWWWWWWWWWWWWWWWWWWWWWWWWWWWWWWWWWWWWWWWWWWWWWWWWWWWWWWWWWWWWWWWWW",
"WWWWWWWWkMxWWWAxmbWWWkMxWWWCxmxWWWjMxWWWWWWWWWWW.              .WWWWWWWWWWWWWWWWWWWWWWWWWWWWWWWWWWWWWWWWWWWWWWWWWWWWWWWWWWWWWWWWWWWWWWWWWWWWWWWWWWWWWWWWWWWWWWWWWWWWWWWWWWWWWWWWWWWWWWWWWWWWWWWWWWWWWWWWWWWWWWWWWWWWWWWWWWWWWWWWWWWWWWWWWW",
"WWWWWWWHvMbWWWcMxHWWDvMbWWWvNxHWWFvmmWWWWWWWWWW                  WWWWWWWWWWWWWWWWWWWWWWWWWWWWWWWWWWWWWWWWWWWWWWWWWWWWWWWWWWWWWWWWWWWWWWWWWWWWWWWWWWWWWWWWWWWWWWWWWWWWWWWWWWWWWWWWWWWWWWWWWWWWWWWWWWWWWWWWWWWWWWWWWWWWWWWWWWWWWWWWWWWWWWWWW",
"WWWWWWWvmxLWWCxmxWWWxNxKWWNxmcWWWxNlKWWWWWWWWWX                  WWWWWWWWWWWWWWWWWWWWWWWWWWWWWWWWWWWWWWWWWWWWWWWWWWWWWWWWWWWWWWWWWWWWWWWWWWWWWWWWWWWWWWWWWWWWWWWWWWWWWWWWWWWWWWWWWWWWWWWWWWWWWWWWWWWWWWWWWWWWWWWWWWWWWWWWWWWWWWWWWWWWWWWWW",
"WWWWWWAvNbWWWvNbHWWGcMnWWWbNvKWWDvNbWWWWWWWWWW                   WWWWWWWWWWWWWWWWWWWWWWWWWWWWWWWWWWWWWWWWWWWWWWWWWWWWWWWWWWWWWWWWWWWWWWWWWWWWWWWWWWWWWWWWWWWWWWWWWWWWWWWWWWWWWWWWWWWWWWWWWWWWWWWWWWWWWWWWWWWWWWWWWWWWWWWWWWWWWWWWWWWWWWWWW",
"WWWWWWWWWWWWWWWWWWWWWWWWWWWWWWWWWWWWWWWWWWWWWo   .@++++++@+      WWWWWWW %WWWWWWWWWWWWWWW.WWWWWWWWWX          .WWWWWWWWWW#.             +WWWWWWWW.          oWWWWWWWWWWWW+...........XOWWWWWWWWW             XWWWWWWWWWWWWWWWWWWWWWWWWWWWW",
"WWWWWWWWWWWWWWWWWWWWWWWWWWWWWWWWWWWWWWWWWWWWW   .WWWWWWWWWWWo    WWWWWW   WWWWWWWWWWWWWW. #WWWWWW.              WWWWWWWWo                WWWWWWW               WWWWWWWWW$              OWWWWWWW               OWWWWWWWWWWWWWWWWWWWWWWWWWWW",
"WWWWWWWWWWWWWWWWWWWWWWWWWWWWWWWWWWWWWWWWWWWW@  +WWWWWWWWWWWWW   WWWWWW.   WWWWWWWWWWWWWO  WWWWWWO               WWWWWWW.                 WWWWWW+               $WWWWWWWW                WWWWWW                oWWWWWWWWWWWWWWWWWWWWWWWWWWW",
"WWWWWWWWWWWWWWWWWWWWWWWWWWWWWWWWWWWWWWWWWWWW   WWWWWWWWWWWWWW  oWWWWWW    XWWWWWWWWWWWW  +WWWWW.                $WWWWWX                  WWWWWW   oXXXXoo.      WWWWWWW+                WWWWW%                oWWWWWWWWWWWWWWWWWWWWWWWWWWW",
"WWWWWWWWWWWWWWWWWWWWWWWWWWWWWWWWWWWWWWWWWWW$  +WWWWWWWWWWWWWWXXWWWWWWX     WWWWWWWWWWW&  WWWWW&   +WWWWWWWWW    WWWWWW   WWWWWWWWWWWW+   WWWWWO  WWWWWWWWWW.    WWWWWWW   XWWWWWWWW#   .WWWWW   XWWWWWWWWWWo  oWWWWWWWWWWWWWWWWWWWWWWWWWWW",
"WWWWWWWWWWWWWWWWWWWWWWWWWWWWWWWWWWWWWWWWWWW   WWWWWWWWWWWWWWWWWWWWWWW      oWWWWWWWWWW  oWWWWW   WWWWWWWWWWWW   WWWWW   WWWWWWWWWWWWWW  OWWWWW  +WWWWWWWWWWW    WWWWWW#  -WWWWWWWWWW#  #WWWWW  $WWWWWWWWWWW%  $WWWWWWWWWWWWWWWWWWWWWWWWWWW",
"WWWWHvNvWWWbNvDWWJvNvWWWmNvSWWGvNvWWWWWWWW#   WWWWWWWWWWWWWWWWWWWWWWo       WWWWWWWWWW  WWWWWX  WWWWWWWWWWWWW  WWWWW#  WWWWWWWWWWWWWW$  WWWWW#  WWWWWWWWWWWWO   WWWWWW  OWWWWWWWWWWW% XWWWWW. XWWWWWWWWWWWW#  WWWWWWWWWWWWWWWWWWWWWWWWWWWW",
"WWWWbNbNWWLxNxWWWcNvBWWKxBxWWWxNbZWWWWWWWW.   X         WWWWWWWWWWWW  OX    +WWWWWWWW. .WWWWW  +WWWWWWWWWWWWWoWWWWWW  OWWWWWWWWWWWWWWo  WWWWW  oWWWWWWWWWWWW$   WWWWWW  WWWWWWWWWWWWW.WWWWWW  WWWWWWWWWWWWW. oWWWWWWWWWWWWWWWWWWWWWWWWWWWW",
"WWWDhxkWWWxxkAWWDhvkWWWlxhDWWAhvkWWWWWWWWW              .WWWWWWWWWW+  W$     WWWWWWWW  WWWWW$  WWWWWWWWWWWWWWWWWWWWW  WWWWWWWWWWWWWWW  $WWWW*  WWWWWWWWWWWWWW   WWWWWX  WWWWWWWWWWWWWWWWWWW. .WWWWWWWWWWWW#  WWWWWWWWWWWWWWWWWWWWWWWWWWWWW",
"WWWWWWWWWWWWWWWWWWWWWWWWWWWWWWWWWWWWWWWWWo              oWWWWWWWWWW  OWW     #WWWWWWo  WWWWW  +WWWWWWWWWWWWWWWWWWWW. oWWWWWWWWWWWWWW+  WWWWW. .WWWWWWWWWWWWW#  oWWWWW  .WWWWWWWWWWWWWWWWWWW  $WWWWWWWWWWWW  +WWWWWWWWWWWWWWWWWWWWWWWWWWWWW",
"WWWWWWWWWWWWWWWWWWWWWWWWWWWWWWWWWWWWWWWWW               WWWWWWWWWW#  WWWO    .WWWWWW  #WWWWW  WWWWWWWWWWWWWWWWWWWWW  WWWWWWWWWWWWWWW  @WWWWW  WWWWWWWWWWWWWW+  #WWWW.           XWWWWWWWWWo  $WWWWWWWWWWW.  WWWWWWWWWWWWWWWWWWWWWWWWWWWWWW",
"WWDMVmWWWnVmJWWFmVmWWWnVnGWWFmVmWWWWWWWWO              %WWWWWWWWWW. .WWWW     WWWWWO  WWWWW  OWWWWWWWWWWWWWWWWWWWWO  WWWWWWWWWWWWWW#  WWWWWX .WWWWWWWWWWWWWW   WWWWW            .WWWWWWWWW    O+++++++@O   WWWWWWWWWWWWWWWWWWWWWWWWWWWWWWW",
"WWxmzAWWHlnxWWWlmzZWWDznvWWWzmkHWWWWWWWW    O        .WWWWWWWWWWWW  WWWWWX    XWWWW  OWWWWW  WWWWWWWWWWWWWWWWWWWWW  WWWWWWWWWWWWWWW  OWWWWW  %WWWWWWWWWWWWW*  oWWWWX            WWWWWWWWW+                @WWWWWWWWWWWWWWWWWWWWWWWWWWWWWWW",
"WmhzlWWWhxgJWWmhzlWWWhxfHWWbhxkWWWWWWWW#   WWWWWWWWWWWWWWWWWWWWWWo  WWWWWW     WWW%  WWWWWX .WWWWWWWWWWWWWWWWWWWW+  WWWWWWWWWWWWWW$  WWWWWO .WWWWWWWWWWWWWW   WWWWW            #WWWWWWWWW                .WWWWWWWWWWWWWWWWWWWWWWWWWWWWWWWW",
"WKIKTWWWHUHWWWKLJRWWWHUHWWWJIKRWWWWWWWW   WWWWWWWWWWWWWWWWWWWWWWW  WWWWWWW     OWW  oWWWWW  WWWWWWWWWWWWWWWWWWWWW  %WWWWWWWWWWWWWW. .WWWWW  $WWWWWWWWWWWWWX  #WWWW+   WWWWWWWWWWWWWWWWWW$               WWWWWWWWWWWWWWWWWWWWWWWWWWWWWWWWWW",
"WWWWWWWWWWWWWWWWWWWWWWWWWWWWWWWWWWWWWW*  oWWWWWWWWWWWWWWXOWWWWWWo  WWWWWWW$     WW  WWWWW+  WWWWWWWWWWWWWWWWWWWW@  WWWWWWWWWWWWWWW  WWWWW+  WWWWWWWWWWWWW#   WWWWW  oWWWWWWWWWWWWWWWWWWW.  XWWWWWWWo   =WWWWWWWWWWWWWWWWWWWWWWWWWWWWWWWWWW",
"WWWWWWWWWWWWWWWWWWWWWWWWWWWWWWWWWWWWWW   WWWWWWWWWWWWWWo .WWWWWW  %WWWWWWWW     Oo XWWWWW  @WWWWWWWWWWWWWoWWWWWW  $WWWWWWWWWWWWWWX .WWWWW  +WWWWWWWWWWWWW   WWWWW#  WWWWWWWWWWWWWWWWWWWW  #WWWWWWWW&   WWWWWWWWWWWWWWWWWWWWWWWWWWWWWWWWWWW",
"WWWWWWWWWWWWWWWWWWWWWWWWWWWWWWWWWWWWWW  XWWWWWWWWWWWWWo  +WWWWW@  WWWWWWWWW+       WWWWW+  WWWWWWWWWWWWW. WWWWW%  WWWWWWWWWWWWWW&  WWWWW@  WWWWWWWWWWWW#   WWWWWW  OWWWWWWWWWWWW  WWWWWo  WWWWWWWWWW   #WWWWWWWWWWWWWWWWWWWWWWWWWWWWWWWWWW",
"WWWWWWWWWWWWWWWWWWWWWWWWWWWWWWWWWWWWW   .WWWWWWWWWWWW.   WWWWWW  @WWWWWWWWWW      .WWWWW   WWWWWWWWWWWW.  WWWWW.  WWWWWWWWWWWWWW  .WWWWW. OWWWWWWWWWWWO   +WWWWWW  WWWWWWWWWWWW  OWWWWW  WWWWWWWWWWW   +WWWWWWWWWWWWWWWWWWWWWWWWWWWWWWWWWW",
"WWWWWWWWWWWWWWWWWWWWWWWWWWWWWWWWWWWWW     $######$@     $WWWWW%  WWWWWWWWWWWO     &WWWWW   $WWWWWWWWW%   %WWWWW   #WWWWWWWWWWW@   WWWWW#  WWWWWWWWWW#     WWWWWWX  oWWWWWWWWWO   WWWWWO  WWWWWWWWWWW   .WWWWWWWWWWWWWWWWWWWWWWWWWWWWWWWWWW",
"WWWWWWWWWWWWWWWWWWWWWWWWWWWWWWWWWWWW.                  .WWWWWW  @WWWWWWWWWWWW     WWWWWO    .......X    oWWWWWW     X....X....   OWWWWWX  #$##@##+X     WWWWWWWW    ........    WWWWWW  %WWWWWWWWWWW   +WWWWWWWWWWWWWWWWWWWWWWWWWWWWWWWWWW",
"WWWWWWWWWWWWWWWWWWWWWWWWWWWWWWWWWWWW                   WWWWWW*  WWWWWWWWWWWWW.   %WWWWW                OWWWWWW                  +WWWWWW                WWWWWWWW+               %WWWWW#  WWWWWWWWWWWWX  WWWWWWWWWWWWWWWWWWWWWWWWWWWWWWWWWWW",
"WWWWWWWWWWWWWWWWWWWWWWWWWWWWWWWWWWW=                 %WWWWWWW  #WWWWWWWWWWWWW%   WWWWWW+              oWWWWWWWW                oWWWWWWO              #WWWWWWWWW               OWWWWWW  WWWWWWWWWWWWWX oWWWWWWWWWWWWWWWWWWWWWWWWWWWWWWWWWWW",
"WWWWWWWWWWWWWWWWWWWWWWWWWWWWWWWWWWWW              .oWWWWWWWWW XWWWWWWWWWWWWWWW .WWWWWWWWX           OWWWWWWWWWWo             .WWWWWWWW+           o#WWWWWWWWWWW            .XWWWWWWWW #WWWWWWWWWWWWW+ WWWWWWWWWWWWWWWWWWWWWWWWWWWWWWWWWWWW",
"WWWWWWWWWWWWWWWWWWWWWWWWWWWWWWWWWWWWWWWWWWWWWWWWWWWWWWWWWWWWWWWWWWWWWWWWWWWWWWWWWWWWWWWWW WWWWWWWWWWWWWWWWWWWWWWWWWWWWWWWWWWWWWWWWWWWWW WWWWWWWWWWWWWWWWWWWWWWWWWWWWWWWWWWWWWWWWWWWWWWWWWWWWWWWWWWWWWWWWWWWWWWWWWWWWWWWWWWWWWWWWWWWWWWWWWW",
"WWWWWWWWWWWWWWWWWWWWWWWWWWWWWWWWWWWWWWWWWWWWWWWWWWWWWWWWWWWWWWWWWWWWWWWWWWWWWWWWWWWWWWWWWWWWWWWWWWWWWWWWWWWWWWWWWWWWWWWWWWWWWWWWWWWWWWWWWWWWWWWWWWWWWWWWWWWWWWWWWWWWWWWWWWWWWWWWWWWWWWWWWWWWWWWWWWWWWWWWWWWWWWWWWWWWWWWWWWWWWWWWWWWWWWWWWW"
};
